<?xml version="1.0" encoding="UTF-8" standalone="no"?>
<!-- Created with Inkscape (http://www.inkscape.org/) -->
<svg
   xmlns:dc="http://purl.org/dc/elements/1.1/"
   xmlns:cc="http://creativecommons.org/ns#"
   xmlns:rdf="http://www.w3.org/1999/02/22-rdf-syntax-ns#"
   xmlns:svg="http://www.w3.org/2000/svg"
   xmlns="http://www.w3.org/2000/svg"
   xmlns:xlink="http://www.w3.org/1999/xlink"
   xmlns:sodipodi="http://sodipodi.sourceforge.net/DTD/sodipodi-0.dtd"
   xmlns:inkscape="http://www.inkscape.org/namespaces/inkscape"
   version="1.0"
   width="125"
   height="75"
   id="svg2926"
   xml:space="preserve"
   sodipodi:version="0.32"
   inkscape:version="0.46"
   sodipodi:docname="Coin_Icon.svg"
   inkscape:output_extension="org.inkscape.output.svg.inkscape"><metadata
     id="metadata249"><rdf:RDF><cc:Work
         rdf:about=""><dc:format>image/svg+xml</dc:format><dc:type
           rdf:resource="http://purl.org/dc/dcmitype/StillImage" /></cc:Work></rdf:RDF></metadata><sodipodi:namedview
     inkscape:window-height="767"
     inkscape:window-width="1280"
     inkscape:pageshadow="2"
     inkscape:pageopacity="0.0"
     guidetolerance="10.0"
     gridtolerance="10.0"
     objecttolerance="10.0"
     borderopacity="1.0"
     bordercolor="#666666"
     pagecolor="#ffffff"
     id="base"
     showgrid="false"
     inkscape:zoom="4.352"
     inkscape:cx="62.5"
     inkscape:cy="37.5"
     inkscape:window-x="0"
     inkscape:window-y="6"
     inkscape:current-layer="g3307" /><defs
     id="defs2929"><inkscape:perspective
       sodipodi:type="inkscape:persp3d"
       inkscape:vp_x="0 : 37.5 : 1"
       inkscape:vp_y="0 : 1000 : 0"
       inkscape:vp_z="125 : 37.5 : 1"
       inkscape:persp3d-origin="62.5 : 25 : 1"
       id="perspective251" /><linearGradient
       id="linearGradient4221"><stop
         id="stop4223"
         style="stop-color: rgb(0, 0, 0); stop-opacity: 1;"
         offset="0" /><stop
         id="stop4225"
         style="stop-color: rgb(0, 0, 0); stop-opacity: 0;"
         offset="1" /></linearGradient><clipPath
       id="clipPath2941"><path
         d="M 0,60 L 100,60 L 100,0 L 0,0 L 0,60 z"
         id="path2943" /></clipPath><radialGradient
       cx="0"
       cy="0"
       r="1"
       fx="0"
       fy="0"
       id="radialGradient2965"
       gradientUnits="userSpaceOnUse"
       gradientTransform="matrix(53.1387, -29.0957, -33.1154, -46.6834, 41.2515, 49.5205)"
       spreadMethod="pad"><stop
         id="stop2967"
         style="stop-color: rgb(200, 200, 200); stop-opacity: 1;"
         offset="0" /><stop
         id="stop2969"
         style="stop-color: rgb(240, 240, 230); stop-opacity: 1;"
         offset="1" /></radialGradient><clipPath
       id="clipPath2977"><path
         d="M 0,60 L 100,60 L 100,0 L 0,0 L 0,60 z"
         id="path2979" /></clipPath><radialGradient
       cx="0"
       cy="0"
       r="1"
       fx="0"
       fy="0"
       id="radialGradient2997"
       gradientUnits="userSpaceOnUse"
       gradientTransform="matrix(11.347, -6.21358, 4.8228, 6.79803, 25.5957, 29.5991)"
       spreadMethod="pad"><stop
         id="stop2999"
         style="stop-color: rgb(255, 255, 255); stop-opacity: 1;"
         offset="0" /><stop
         id="stop3001"
         style="stop-color: rgb(200, 200, 200); stop-opacity: 1;"
         offset="1" /></radialGradient><clipPath
       id="clipPath3009"><path
         d="M 0,60 L 100,60 L 100,0 L 0,0 L 0,60 z"
         id="path3011" /></clipPath><clipPath
       id="clipPath3021"><path
         d="M 12.6836,34.5303 L 35.3853,34.5303 L 35.3853,16.1943 L 12.6836,16.1943 L 12.6836,34.5303 z"
         id="path3023" /></clipPath><radialGradient
       cx="0"
       cy="0"
       r="1"
       fx="0"
       fy="0"
       id="radialGradient3045"
       gradientUnits="userSpaceOnUse"
       gradientTransform="matrix(6.03993, -3.30727, 3.76418, 5.30595, 31.6938, 38.1919)"
       spreadMethod="pad"><stop
         id="stop3047"
         style="stop-color: rgb(255, 255, 255); stop-opacity: 1;"
         offset="0" /><stop
         id="stop3049"
         style="stop-color: rgb(200, 200, 200); stop-opacity: 1;"
         offset="1" /></radialGradient><clipPath
       id="clipPath3057"><path
         d="M 0,60 L 100,60 L 100,0 L 0,0 L 0,60 z"
         id="path3059" /></clipPath><clipPath
       id="clipPath3069"><path
         d="M 24.2422,42.9629 L 40.0811,42.9629 L 40.0811,28.9434 L 24.2422,28.9434 L 24.2422,42.9629 z"
         id="path3071" /></clipPath><clipPath
       id="clipPath3085"><path
         d="M 12.4336,30.0757 L 19.2544,30.0757 L 19.2544,24.4033 L 12.4336,24.4033 L 12.4336,30.0757 z"
         id="path3087" /></clipPath><linearGradient
       x1="0"
       y1="0"
       x2="1"
       y2="0"
       id="linearGradient3093"
       gradientUnits="userSpaceOnUse"
       gradientTransform="matrix(0.997879, -1.36813, 1.36813, 0.997879, 14.7334, 29.1538)"
       spreadMethod="pad"><stop
         id="stop3095"
         style="stop-color: rgb(0, 0, 0); stop-opacity: 1;"
         offset="0" /><stop
         id="stop3097"
         style="stop-color: rgb(0, 0, 0); stop-opacity: 1;"
         offset="1" /></linearGradient><clipPath
       id="clipPath3117"><path
         d="M 29.2686,23.874 L 32.4722,23.874 L 32.4722,16.3643 L 29.2686,16.3643 L 29.2686,23.874 z"
         id="path3119" /></clipPath><linearGradient
       x1="0"
       y1="0"
       x2="1"
       y2="0"
       id="linearGradient3125"
       gradientUnits="userSpaceOnUse"
       gradientTransform="matrix(1.36533, 0.171844, 0.171844, -1.36533, 30.8081, 20.1035)"
       spreadMethod="pad"><stop
         id="stop3127"
         style="stop-color: rgb(0, 0, 0); stop-opacity: 1;"
         offset="0" /><stop
         id="stop3129"
         style="stop-color: rgb(0, 0, 0); stop-opacity: 1;"
         offset="1" /></linearGradient><clipPath
       id="clipPath3185"><path
         d="M 6.53223,53.7231 L 53.4297,53.7231 L 53.4297,12.5186 L 6.53223,12.5186 L 6.53223,53.7231 z"
         id="path3187" /></clipPath><radialGradient
       cx="0"
       cy="0"
       r="1"
       fx="0"
       fy="0"
       id="radialGradient3217"
       gradientUnits="userSpaceOnUse"
       gradientTransform="matrix(62.8577, 0, 0, -55.2268, 69.8447, 51.1216)"
       spreadMethod="pad"><stop
         id="stop3219"
         style="stop-color: rgb(153, 96, 63); stop-opacity: 1;"
         offset="0" /><stop
         id="stop3221"
         style="stop-color: rgb(236, 235, 195); stop-opacity: 1;"
         offset="1" /></radialGradient><clipPath
       id="clipPath3229"><path
         d="M 0,60 L 100,60 L 100,0 L 0,0 L 0,60 z"
         id="path3231" /></clipPath><radialGradient
       cx="0"
       cy="0"
       r="1"
       fx="0"
       fy="0"
       id="radialGradient3249"
       gradientUnits="userSpaceOnUse"
       gradientTransform="matrix(13.4226, 0, 0, 8.04225, 68.5498, 26.8477)"
       spreadMethod="pad"><stop
         id="stop3251"
         style="stop-color: rgb(225, 235, 194); stop-opacity: 1;"
         offset="0" /><stop
         id="stop3253"
         style="stop-color: rgb(184, 140, 87); stop-opacity: 1;"
         offset="1" /></radialGradient><clipPath
       id="clipPath3261"><path
         d="M 0,60 L 100,60 L 100,0 L 0,0 L 0,60 z"
         id="path3263" /></clipPath><clipPath
       id="clipPath3273"><path
         d="M 57.9756,30.3193 L 82.3516,30.3193 L 82.3516,16.2002 L 57.9756,16.2002 L 57.9756,30.3193 z"
         id="path3275" /></clipPath><radialGradient
       cx="0"
       cy="0"
       r="1"
       fx="0"
       fy="0"
       id="radialGradient3297"
       gradientUnits="userSpaceOnUse"
       gradientTransform="matrix(7.1416, 0, 0, 6.27522, 68.5557, 37.0127)"
       spreadMethod="pad"><stop
         id="stop3299"
         style="stop-color: rgb(255, 235, 194); stop-opacity: 1;"
         offset="0" /><stop
         id="stop3301"
         style="stop-color: rgb(184, 140, 87); stop-opacity: 1;"
         offset="1" /></radialGradient><clipPath
       id="clipPath3309"><path
         d="M 0,60 L 100,60 L 100,0 L 0,0 L 0,60 z"
         id="path3311" /></clipPath><clipPath
       id="clipPath3321"><path
         d="M 62.3555,42.3574 L 78.252,42.3574 L 78.252,28.2881 L 62.3555,28.2881 L 62.3555,42.3574 z"
         id="path3323" /></clipPath><clipPath
       id="clipPath3337"><path
         d="M 59.1719,24.2939 L 62.8604,24.2939 L 62.8604,16.5508 L 59.1719,16.5508 L 59.1719,24.2939 z"
         id="path3339" /></clipPath><linearGradient
       x1="0"
       y1="0"
       x2="1"
       y2="0"
       id="linearGradient3345"
       gradientUnits="userSpaceOnUse"
       gradientTransform="matrix(1.7233, -0.694824, 0.694824, 1.7233, 59.5732, 21.3662)"
       spreadMethod="pad"><stop
         id="stop3347"
         style="stop-color: rgb(0, 0, 0); stop-opacity: 1;"
         offset="0" /><stop
         id="stop3349"
         style="stop-color: rgb(0, 0, 0); stop-opacity: 1;"
         offset="1" /></linearGradient><clipPath
       id="clipPath3369"><path
         d="M 77.5234,24.9883 L 81.4521,24.9883 L 81.4521,17.2979 L 77.5234,17.2979 L 77.5234,24.9883 z"
         id="path3371" /></clipPath><linearGradient
       x1="0"
       y1="0"
       x2="1"
       y2="0"
       id="linearGradient3377"
       gradientUnits="userSpaceOnUse"
       gradientTransform="matrix(0.948334, 0.770844, 0.770844, -0.948334, 78.7725, 21.2061)"
       spreadMethod="pad"><stop
         id="stop3379"
         style="stop-color: rgb(0, 0, 0); stop-opacity: 1;"
         offset="0" /><stop
         id="stop3381"
         style="stop-color: rgb(0, 0, 0); stop-opacity: 1;"
         offset="1" /></linearGradient><clipPath
       id="clipPath3437"><path
         d="M 46.6196,52.5786 L 93.7061,52.5786 L 93.7061,11.209 L 46.6196,11.209 L 46.6196,52.5786 z"
         id="path3439" /></clipPath><radialGradient
       cx="41.819855"
       cy="66.038605"
       r="61.810661"
       fx="41.819855"
       fy="66.038605"
       id="radialGradient4227"
       xlink:href="#linearGradient4221"
       gradientUnits="userSpaceOnUse"
       gradientTransform="matrix(1, 0, 0, 0.434944, 0, 37.3155)" /><radialGradient
       cx="41.819855"
       cy="66.038605"
       r="61.810661"
       fx="41.819855"
       fy="66.038605"
       id="radialGradient4244"
       xlink:href="#linearGradient4221"
       gradientUnits="userSpaceOnUse"
       gradientTransform="matrix(1, 0, 0, 0.434944, 0, 37.3155)" /></defs><g
     transform="matrix(1.25, 0, 0, -1.25, 0, 75)"
     id="g2935"><path
       d="M 103.63052,66.038605 A 61.810661,26.884192 0 1 1 -19.990807,66.038605 A 61.810661,26.884192 0 1 1 103.63052,66.038605 z"
       transform="matrix(0.489219, 0, 0, -0.899145, 48.6586, 84.1945)"
       id="path4242"
       style="opacity: 1; fill: url(#radialGradient4244) rgb(0, 0, 0); fill-opacity: 1; fill-rule: nonzero; stroke: none; stroke-width: 2; stroke-linecap: butt; stroke-linejoin: round; stroke-miterlimit: 4; stroke-dasharray: none; stroke-dashoffset: 0pt; stroke-opacity: 1;" /><path
       d="M 103.63052,66.038605 A 61.810661,26.884192 0 1 1 -19.990807,66.038605 A 61.810661,26.884192 0 1 1 103.63052,66.038605 z"
       transform="matrix(0.489219, 0, 0, -0.899145, 10.1475, 85.9408)"
       id="path3449"
       style="opacity: 1; fill: url(#radialGradient4227) rgb(0, 0, 0); fill-opacity: 1; fill-rule: nonzero; stroke: none; stroke-width: 2; stroke-linecap: butt; stroke-linejoin: round; stroke-miterlimit: 4; stroke-dasharray: none; stroke-dashoffset: 0pt; stroke-opacity: 1;" /><g
       id="g2937"><g
         clip-path="url(#clipPath2941)"
         id="g2939"><g
           transform="translate(42.8921, 49.8276)"
           id="g2945"><path
             d="M 0,0 C -11.576,6.34 -26.811,3.235 -34.029,-6.934 C -36.348,-10.213 -37.542,-13.823 -37.727,-17.428 C -38.794,-25.507 -34.66,-33.787 -26.287,-38.371 C -14.709,-44.708 0.524,-41.603 7.733,-31.44 C 10.061,-28.16 11.254,-24.545 11.439,-20.94 C 12.506,-12.862 8.374,-4.585 0,0"
             id="path2947"
             style="fill: rgb(50, 50, 50); fill-opacity: 1; fill-rule: nonzero; stroke: none;" /></g><g
           transform="translate(42.8921, 49.8276)"
           id="g2949"><path
             d="M 0,0 C -11.576,6.34 -26.811,3.235 -34.029,-6.934 C -36.348,-10.213 -37.542,-13.823 -37.727,-17.428 C -38.794,-25.507 -34.66,-33.787 -26.287,-38.371 C -14.709,-44.708 0.524,-41.603 7.733,-31.44 C 10.061,-28.16 11.254,-24.545 11.439,-20.94 C 12.506,-12.862 8.374,-4.585 0,0 z"
             id="path2951"
             style="fill: none; stroke: rgb(50, 50, 50); stroke-width: 2.324; stroke-linecap: butt; stroke-linejoin: miter; stroke-miterlimit: 4; stroke-dasharray: none; stroke-opacity: 1;" /></g></g></g><g
       id="g2953"><g
         id="g2955"><g
           id="g2961"><g
             id="g2963"><path
               d="M 9.027,44.597 C 1.808,34.428 5.35,21.046 16.925,14.712 L 16.925,14.712 C 28.493,8.375 43.727,11.48 50.945,21.643 L 50.945,21.643 C 58.154,31.818 54.621,45.199 43.047,51.535 L 43.047,51.535 C 38.982,53.762 34.467,54.824 30.005,54.824 L 30.005,54.824 C 21.762,54.823 13.704,51.197 9.027,44.597"
               id="path2971"
               style="fill: url(#radialGradient2965) rgb(0, 0, 0); stroke: none;" /></g></g></g></g><g
       id="g2973"><g
         clip-path="url(#clipPath2977)"
         id="g2975"><g
           transform="translate(50.9448, 21.6436)"
           id="g2981"><path
             d="M 0,0 C -7.218,-10.164 -22.452,-13.269 -34.02,-6.932 C -45.595,-0.598 -49.137,12.784 -41.917,22.954 C -34.708,33.127 -19.473,36.232 -7.898,29.891 C 3.676,23.555 7.209,10.174 0,0 z"
             id="path2983"
             style="fill: none; stroke: rgb(120, 120, 120); stroke-width: 2.324; stroke-linecap: butt; stroke-linejoin: miter; stroke-miterlimit: 4; stroke-dasharray: none; stroke-opacity: 1;" /></g></g></g><g
       id="g2985"><g
         id="g2987"><g
           id="g2993"><g
             id="g2995"><path
               d="M 11.986,28.063 C 11.501,24.802 13.413,23.127 16.072,21.672 L 16.072,21.672 L 24.951,16.813 C 27.464,15.44 30.531,14.887 33.071,16.691 L 33.071,16.691 C 35.497,18.407 37.74,22.978 34.517,29.431 L 34.517,29.431 L 24.019,35.185 C 16.188,35.141 12.461,31.255 11.986,28.063"
               id="path3003"
               style="fill: url(#radialGradient2997) rgb(0, 0, 0); stroke: none;" /></g></g></g></g><g
       id="g3005"><g
         clip-path="url(#clipPath3009)"
         id="g3007"><g
           transform="translate(16.0718, 21.6719)"
           id="g3013"><path
             d="M 0,0 L 8.879,-4.859 C 11.393,-6.231 14.459,-6.785 17,-4.98 C 19.425,-3.265 21.667,1.306 18.445,7.759 L 7.947,13.513 C 0.116,13.47 -3.61,9.583 -4.086,6.391 C -4.571,3.13 -2.659,1.455 0,0 z"
             id="path3015"
             style="fill: none; stroke: rgb(120, 120, 120); stroke-width: 0.748; stroke-linecap: round; stroke-linejoin: round; stroke-miterlimit: 4; stroke-dasharray: none; stroke-opacity: 1;" /></g><g
           id="g3017"><g
             id="g3019" /><g
             id="g3025"><g
               clip-path="url(#clipPath3021)"
               id="g3027"
               style="opacity: 0.215195;"><g
                 transform="translate(16.7217, 22.4043)"
                 id="g3029"><path
                   d="M 0,0 L 8.627,-4.723 C 10.839,-5.931 13.528,-6.416 15.768,-4.83 C 17.893,-3.324 19.649,0.806 16.815,6.474 L 7.181,11.752 C 0.301,11.713 -3.183,8.424 -3.6,5.615 C -4.018,2.751 -2.338,1.281 0,0 z"
                   id="path3031"
                   style="fill: none; stroke: rgb(255, 255, 255); stroke-width: 0.748; stroke-linecap: round; stroke-linejoin: round; stroke-miterlimit: 4; stroke-dasharray: none; stroke-opacity: 1;" /></g></g></g></g></g></g><g
       id="g3033"><g
         id="g3035"><g
           id="g3041"><g
             id="g3043"><path
               d="M 24.912,39.919 L 24.912,39.916 C 22.417,36.398 23.641,31.769 27.649,29.58 L 27.649,29.58 C 31.646,27.393 36.914,28.47 39.408,31.987 L 39.408,31.987 L 39.408,31.992 C 41.902,35.51 40.679,40.134 36.671,42.326 L 36.671,42.326 C 35.27,43.092 33.712,43.457 32.172,43.457 L 32.172,43.457 C 29.321,43.457 26.531,42.204 24.912,39.919"
               id="path3051"
               style="fill: url(#radialGradient3045) rgb(0, 0, 0); stroke: none;" /></g></g></g></g><g
       id="g3053"><g
         clip-path="url(#clipPath3057)"
         id="g3055"><g
           transform="translate(39.4082, 31.9873)"
           id="g3061"><path
             d="M 0,0 C -2.494,-3.518 -7.763,-4.594 -11.759,-2.407 C -15.767,-0.218 -16.991,4.41 -14.496,7.928 L -14.496,7.933 C -12.002,11.451 -6.735,12.523 -2.737,10.339 C 1.271,8.146 2.494,3.522 0,0.005 L 0,0 z"
             id="path3063"
             style="fill: none; stroke: rgb(120, 120, 120); stroke-width: 0.748; stroke-linecap: round; stroke-linejoin: round; stroke-miterlimit: 4; stroke-dasharray: none; stroke-opacity: 1;" /></g><g
           id="g3065"><g
             id="g3067" /><g
             id="g3073"><g
               clip-path="url(#clipPath3069)"
               id="g3075"
               style="opacity: 0.126587;"><g
                 transform="translate(38.5151, 32.4722)"
                 id="g3077"><path
                   d="M 0,0 C -2.183,-3.085 -6.802,-4.025 -10.313,-2.11 C -13.826,-0.185 -14.903,3.873 -12.71,6.958 L -12.71,6.963 C -10.517,10.048 -5.91,10.99 -2.396,9.068 C 1.116,7.147 2.193,3.091 0.01,0.005 C 0.01,0.005 0,0.005 0,0 z"
                   id="path3079"
                   style="fill: none; stroke: rgb(255, 255, 255); stroke-width: 0.853; stroke-linecap: round; stroke-linejoin: round; stroke-miterlimit: 4; stroke-dasharray: none; stroke-opacity: 1;" /></g></g></g></g><g
           id="g3081"><g
             id="g3083" /><g
             id="g3099"><g
               clip-path="url(#clipPath3085)"
               id="g3101"
               style="opacity: 0.227844;"><g
                 id="g3103"><g
                   id="g3105"><g
                     id="g3107"><g
                       id="g3109"><path
                         d="M 13.005,24.403 C 12.249,25.373 12.461,26.599 12.461,26.599 C 15.285,29.207 19.254,30.076 19.254,30.076 C 19.254,30.076 13.995,26.403 13.005,24.403"
                         id="path3111"
                         style="fill: url(#linearGradient3093) rgb(0, 0, 0); stroke: none;" /></g></g></g></g></g></g></g><g
           id="g3113"><g
             id="g3115" /><g
             id="g3131"><g
               clip-path="url(#clipPath3117)"
               id="g3133"
               style="opacity: 0.227844;"><g
                 id="g3135"><g
                   id="g3137"><g
                     id="g3139"><g
                       id="g3141"><path
                         d="M 29.269,16.381 C 30.599,16.24 31.82,17.025 31.82,17.025 C 33.129,20.434 32.063,23.874 32.063,23.874 C 32.063,23.874 30.822,18.082 29.269,16.381"
                         id="path3143"
                         style="fill: url(#linearGradient3125) rgb(0, 0, 0); stroke: none;" /></g></g></g></g></g></g></g><g
           transform="translate(29.9346, 51.1299)"
           id="g3145" /><g
           transform="translate(31.4771, 47.5396)"
           id="g3149" /><g
           transform="translate(35.6797, 46.6738)"
           id="g3153" /><g
           transform="translate(37.085, 46.146)"
           id="g3157" /><g
           transform="translate(40.4248, 45.9482)"
           id="g3161" /><g
           transform="translate(43.7583, 43.6782)"
           id="g3165" /><g
           transform="translate(45.8501, 40.5825)"
           id="g3169" /><g
           transform="translate(45.7578, 37.3887)"
           id="g3173"><path
             d="M 0,0 C -0.141,0.392 -0.218,0.583 -0.388,0.96 C 0.694,1.339 1.235,1.528 2.317,1.906 C 2.517,1.463 2.608,1.237 2.773,0.777 C 1.665,0.467 1.109,0.312 0,0 M 3.181,0.892 C 3.012,1.362 2.917,1.592 2.714,2.044 C 2.976,2.136 3.107,2.181 3.369,2.272 C 3.58,1.803 3.676,1.565 3.851,1.079 C 3.583,1.004 3.449,0.967 3.181,0.892"
             id="path3175"
             style="fill: rgb(120, 120, 120); fill-opacity: 1; fill-rule: nonzero; stroke: none;" /></g><g
           transform="translate(47.4932, 35.1704)"
           id="g3177"><path
             d="M 0,0 C 0.031,0.004 0.045,0.007 0.077,0.011 C 0.04,0.239 0.02,0.353 -0.026,0.578 C -0.048,0.687 -0.088,0.77 -0.146,0.825 C -0.205,0.879 -0.27,0.899 -0.339,0.886 C -0.409,0.874 -0.46,0.833 -0.494,0.763 C -0.528,0.692 -0.533,0.601 -0.51,0.487 C -0.486,0.367 -0.464,0.284 -0.441,0.232 C -0.418,0.181 -0.375,0.124 -0.312,0.063 C -0.249,0.002 -0.145,-0.019 0,0 M -0.996,-1.212 C -1.03,-0.79 -1.055,-0.582 -1.121,-0.17 C -1.022,-0.158 -0.974,-0.15 -0.875,-0.138 C -0.99,-0.036 -1.081,0.066 -1.144,0.17 C -1.207,0.275 -1.254,0.412 -1.293,0.589 C -1.368,0.927 -1.352,1.21 -1.235,1.449 C -1.182,1.559 -1.104,1.654 -1,1.735 C -0.897,1.816 -0.776,1.873 -0.638,1.907 C -0.399,1.965 -0.175,1.92 0.033,1.762 C 0.271,1.583 0.447,1.28 0.539,0.856 C 0.605,0.552 0.633,0.398 0.684,0.087 C 0.715,0.091 0.73,0.093 0.762,0.097 C 0.895,0.114 0.985,0.168 1.028,0.266 C 1.07,0.364 1.072,0.52 1.029,0.731 C 1,0.879 0.959,0.992 0.914,1.067 C 0.868,1.143 0.794,1.223 0.693,1.307 C 0.847,1.636 0.919,1.804 1.055,2.145 C 1.256,1.99 1.416,1.809 1.529,1.605 C 1.643,1.403 1.738,1.132 1.806,0.792 C 2.041,-0.393 1.692,-1.044 0.963,-1.089 C 0.179,-1.138 -0.212,-1.163 -0.996,-1.212"
             id="path3179"
             style="fill: rgb(120, 120, 120); fill-opacity: 1; fill-rule: nonzero; stroke: none;" /></g><g
           id="g3181"><g
             id="g3183" /><g
             id="g3189"><g
               clip-path="url(#clipPath3185)"
               id="g3191"
               style="opacity: 0.300003;"><g
                 transform="translate(30.0166, 51.5444)"
                 id="g3193"><path
                   d="M 0,0 L 0,0 C -7.317,0 -13.983,-3.24 -17.836,-8.674 C -23.948,-17.296 -20.94,-28.683 -11.121,-34.056 C -7.802,-35.881 -3.979,-36.842 -0.068,-36.842 C 7.247,-36.842 13.914,-33.603 17.765,-28.169 C 20.724,-24 21.656,-19.063 20.385,-14.258 C 19.124,-9.461 15.805,-5.384 11.061,-2.784 C 7.732,-0.961 3.909,0 0,0 M 0,2.179 C 4.239,2.179 8.518,1.174 12.37,-0.937 C 23.343,-6.947 26.711,-19.679 19.871,-29.325 C 15.437,-35.581 7.761,-39.026 -0.068,-39.026 C -4.299,-39.026 -8.588,-38.017 -12.441,-35.911 C -23.415,-29.896 -26.782,-17.165 -19.942,-7.524 C -15.498,-1.261 -7.832,2.179 0,2.179"
                   id="path3195"
                   style="fill: rgb(255, 255, 255); fill-opacity: 1; fill-rule: nonzero; stroke: none;" /></g></g></g></g><g
           transform="translate(83.3525, 48.6641)"
           id="g3197"><path
             d="M 0,0 C -11.622,6.36 -26.917,3.245 -34.151,-6.962 C -36.48,-10.254 -37.684,-13.878 -37.868,-17.493 C -38.946,-25.607 -34.792,-33.918 -26.383,-38.522 C -14.768,-44.878 0.524,-41.764 7.763,-31.56 C 10.103,-28.266 11.296,-24.641 11.48,-21.021 C 12.557,-12.908 8.404,-4.604 0,0"
             id="path3199"
             style="fill: rgb(50, 50, 50); fill-opacity: 1; fill-rule: nonzero; stroke: none;" /></g><g
           transform="translate(83.3525, 48.6641)"
           id="g3201"><path
             d="M 0,0 C -11.622,6.36 -26.917,3.245 -34.151,-6.962 C -36.48,-10.254 -37.684,-13.878 -37.868,-17.493 C -38.946,-25.607 -34.792,-33.918 -26.383,-38.522 C -14.768,-44.878 0.524,-41.764 7.763,-31.56 C 10.103,-28.266 11.296,-24.641 11.48,-21.021 C 12.557,-12.908 8.404,-4.604 0,0 z"
             id="path3203"
             style="fill: none; stroke: rgb(50, 50, 50); stroke-width: 2.333; stroke-linecap: butt; stroke-linejoin: miter; stroke-miterlimit: 4; stroke-dasharray: none; stroke-opacity: 1;" /></g></g></g><g
       id="g3205"><g
         id="g3207"><g
           id="g3213"><g
             id="g3215"><path
               d="M 45.367,31.899 C 45.367,19.87 56.465,10.112 70.157,10.112 L 70.157,10.112 C 83.847,10.112 94.949,19.87 94.949,31.899 L 94.949,31.899 C 94.949,43.924 83.847,53.676 70.157,53.676 L 70.157,53.676 C 56.465,53.676 45.367,43.924 45.367,31.899"
               id="path3223"
               style="fill: url(#radialGradient3217) rgb(0, 0, 0); stroke: none;" /></g></g></g></g><g
       id="g3225"><g
         clip-path="url(#clipPath3229)"
         id="g3227"><g
           transform="translate(94.9492, 31.8984)"
           id="g3233"><path
             d="M 0,0 C 0,-12.028 -11.103,-21.786 -24.792,-21.786 C -38.484,-21.786 -49.582,-12.028 -49.582,0 C -49.582,12.026 -38.484,21.777 -24.792,21.777 C -11.103,21.777 0,12.026 0,0 z"
             id="path3235"
             style="fill: none; stroke: rgb(111, 71, 8); stroke-width: 2.333; stroke-linecap: butt; stroke-linejoin: miter; stroke-miterlimit: 4; stroke-dasharray: none; stroke-opacity: 1;" /></g></g></g><g
       id="g3237"><g
         id="g3239"><g
           id="g3245"><g
             id="g3247"><path
               d="M 63.83,30.87 C 57.184,27.183 56.358,22.13 57.882,19.19 L 57.882,19.19 C 59.444,16.182 62.083,15.652 65.228,15.652 L 65.228,15.652 L 75.728,15.652 C 78.696,15.652 81.647,16.609 82.722,19.341 L 82.722,19.341 C 83.75,21.931 82.895,26.871 76.251,30.87 L 76.251,30.87 L 63.83,30.87 z"
               id="path3255"
               style="fill: url(#radialGradient3249) rgb(0, 0, 0); stroke: none;" /></g></g></g></g><g
       id="g3257"><g
         clip-path="url(#clipPath3261)"
         id="g3259"><g
           transform="translate(65.2275, 15.6523)"
           id="g3265"><path
             d="M 0,0 L 10.5,0 C 13.469,0 16.42,0.957 17.494,3.688 C 18.522,6.279 17.668,11.219 11.023,15.218 L -1.397,15.218 C -8.043,11.53 -8.869,6.478 -7.346,3.537 C -5.783,0.529 -3.145,0 0,0 z"
             id="path3267"
             style="fill: none; stroke: rgb(111, 71, 8); stroke-width: 0.751; stroke-linecap: round; stroke-linejoin: round; stroke-miterlimit: 4; stroke-dasharray: none; stroke-opacity: 1;" /></g><g
           id="g3269"><g
             id="g3271" /><g
             id="g3277"><g
               clip-path="url(#clipPath3273)"
               id="g3279"
               style="opacity: 0.215195;"><g
                 transform="translate(65.335, 16.5752)"
                 id="g3281"><path
                   d="M 0,0 L 10.208,0 C 12.829,0 15.409,0.844 16.352,3.242 C 17.251,5.521 16.264,9.854 10.422,13.369 L -0.98,13.369 C -6.822,10.125 -7.792,5.695 -6.453,3.104 C -5.085,0.47 -2.767,0 0,0 z"
                   id="path3283"
                   style="fill: none; stroke: rgb(255, 255, 255); stroke-width: 0.751; stroke-linecap: round; stroke-linejoin: round; stroke-miterlimit: 4; stroke-dasharray: none; stroke-opacity: 1;" /></g></g></g></g></g></g><g
       id="g3285"><g
         id="g3287"><g
           id="g3293"><g
             id="g3295"><path
               d="M 61.736,35.324 L 61.736,35.32 C 61.736,31.157 65.579,27.789 70.313,27.789 L 70.313,27.789 C 75.038,27.789 78.881,31.166 78.872,35.324 L 78.872,35.324 L 78.872,35.334 C 78.872,39.489 75.029,42.856 70.303,42.856 L 70.303,42.856 C 65.568,42.852 61.736,39.48 61.736,35.324"
               id="path3303"
               style="fill: url(#radialGradient3297) rgb(0, 0, 0); stroke: none;" /></g></g></g></g><g
       id="g3305"><g
         clip-path="url(#clipPath3309)"
         id="g3307"><g
           transform="translate(78.8721, 35.3242)"
           id="g3313"><path
             d="M 0,0 C 0.009,-4.158 -3.834,-7.535 -8.559,-7.535 C -13.294,-7.535 -17.137,-4.167 -17.137,-0.005 L -17.137,0 C -17.137,4.156 -13.305,7.528 -8.569,7.532 C -3.843,7.532 0,4.166 0,0.01 L 0,0 z"
             id="path3315"
             style="fill: none; stroke: rgb(111, 71, 8); stroke-width: 0.751; stroke-linecap: round; stroke-linejoin: round; stroke-miterlimit: 4; stroke-dasharray: none; stroke-opacity: 1;" /></g><g
           id="g3317"><g
             id="g3319" /><g
             id="g3325"><g
               clip-path="url(#clipPath3321)"
               id="g3327"
               style="opacity: 0.126587;"><g
                 transform="translate(77.8242, 35.3242)"
                 id="g3329"><path
                   d="M 0,0 C 0,-3.649 -3.368,-6.604 -7.521,-6.608 C -11.665,-6.608 -15.032,-3.653 -15.041,-0.005 L -15.041,0 C -15.041,3.647 -11.675,6.605 -7.521,6.605 C -3.368,6.605 0,3.656 0,0.01 L 0,0 z"
                   id="path3331"
                   style="fill: none; stroke: rgb(255, 255, 255); stroke-width: 0.856; stroke-linecap: round; stroke-linejoin: round; stroke-miterlimit: 4; stroke-dasharray: none; stroke-opacity: 1;" /></g></g></g></g><g
           id="g3333"><g
             id="g3335" /><g
             id="g3351"><g
               clip-path="url(#clipPath3337)"
               id="g3353"
               style="opacity: 0.227844;"><g
                 id="g3355"><g
                   id="g3357"><g
                     id="g3359"><g
                       id="g3361"><path
                         d="M 60.969,16.551 C 59.734,17.025 59.172,18.166 59.172,18.166 C 60.007,21.703 62.86,24.294 62.86,24.294 C 62.86,24.294 60.6,18.72 60.969,16.551"
                         id="path3363"
                         style="fill: url(#linearGradient3345) rgb(0, 0, 0); stroke: none;" /></g></g></g></g></g></g></g><g
           id="g3365"><g
             id="g3367" /><g
             id="g3383"><g
               clip-path="url(#clipPath3369)"
               id="g3385"
               style="opacity: 0.227844;"><g
                 id="g3387"><g
                   id="g3389"><g
                     id="g3391"><g
                       id="g3393"><path
                         d="M 79.668,17.298 C 80.89,17.803 81.452,19.04 81.452,19.04 C 80.512,22.552 77.523,24.988 77.523,24.988 C 77.523,24.988 79.969,19.473 79.668,17.298"
                         id="path3395"
                         style="fill: url(#linearGradient3377) rgb(0, 0, 0); stroke: none;" /></g></g></g></g></g></g></g><g
           transform="translate(59.2383, 47.2109)"
           id="g3397" /><g
           transform="translate(62.7227, 44.8711)"
           id="g3401" /><g
           transform="translate(66.8252, 46.0947)"
           id="g3405" /><g
           transform="translate(68.3408, 46.3018)"
           id="g3409" /><g
           transform="translate(71.3066, 47.6924)"
           id="g3413" /><g
           transform="translate(75.5195, 47.3125)"
           id="g3417" /><g
           transform="translate(79.1719, 45.6499)"
           id="g3421" /><g
           transform="translate(81.0234, 42.8843)"
           id="g3425" /><g
           transform="translate(83.8428, 41.8047)"
           id="g3429" /><g
           id="g3433"><g
             id="g3435" /><g
             id="g3441"><g
               clip-path="url(#clipPath3437)"
               id="g3443"
               style="opacity: 0.300003;"><g
                 transform="translate(70.1572, 50.2456)"
                 id="g3445"><path
                   d="M 0,0 C -11.692,0 -21.205,-8.23 -21.205,-18.347 C -21.205,-28.469 -11.692,-36.704 0,-36.704 C 11.698,-36.704 21.216,-28.469 21.216,-18.347 C 21.216,-8.23 11.698,0 0,0 M 0,2.333 C 12.981,2.333 23.549,-6.943 23.549,-18.347 C 23.549,-29.755 12.981,-39.037 0,-39.037 C -12.983,-39.037 -23.538,-29.755 -23.538,-18.347 C -23.538,-6.943 -12.983,2.333 0,2.333"
                   id="path3447"
                   style="fill: rgb(255, 255, 255); fill-opacity: 1; fill-rule: nonzero; stroke: none;" /></g></g></g></g></g></g></g></svg>